<svg xmlns="http://www.w3.org/2000/svg" xmlns:xlink="http://www.w3.org/1999/xlink" width="228" zoomAndPan="magnify" viewBox="0 0 171 130.499996" height="174" preserveAspectRatio="xMidYMid meet" version="1.2"><defs><clipPath id="7ed0afe4af"><path d="M 62.75 98.140625 L 170 98.140625 L 170 120.554688 L 62.75 120.554688 Z M 62.75 98.140625 "/></clipPath><clipPath id="7cab6827ad"><path d="M 0.328125 0 L 123.605469 0 L 123.605469 129.253906 L 0.328125 129.253906 Z M 0.328125 0 "/></clipPath><clipPath id="8707799636"><path d="M 94.757812 8.417969 L 170 8.417969 L 170 121 L 94.757812 121 Z M 94.757812 8.417969 "/></clipPath><clipPath id="e883627de8"><path d="M 62.75 8.417969 L 138.957031 8.417969 L 138.957031 33.070312 L 62.75 33.070312 Z M 62.75 8.417969 "/></clipPath></defs><g id="d925b89890"><g clip-rule="nonzero" clip-path="url(#7ed0afe4af)"><path style=" stroke:none;fill-rule:nonzero;fill:#004aad;fill-opacity:1;" d="M 160.335938 51.003906 L 87.207031 11.121094 C 83.914062 9.3125 80.644531 8.394531 77.507812 8.394531 C 68.738281 8.394531 62.839844 15.300781 62.839844 25.574219 L 62.839844 103.703125 C 62.839844 113.976562 68.738281 120.878906 77.507812 120.878906 C 80.644531 120.878906 83.914062 119.960938 87.207031 118.164062 L 160.34375 78.273438 C 166.449219 74.929688 169.964844 69.960938 169.964844 64.636719 C 169.964844 59.316406 166.449219 54.335938 160.335938 51.003906 Z M 155.667969 69.714844 L 82.527344 109.601562 C 80.710938 110.597656 78.972656 111.113281 77.507812 111.113281 C 73.074219 111.113281 72.605469 105.9375 72.605469 103.703125 L 72.605469 25.574219 C 72.605469 23.335938 73.085938 18.160156 77.507812 18.160156 C 78.972656 18.160156 80.710938 18.6875 82.527344 19.675781 L 155.65625 59.558594 C 158.5 61.113281 160.1875 63.015625 160.1875 64.636719 C 160.1875 66.257812 158.5 68.152344 155.667969 69.714844 Z M 155.667969 69.714844 "/></g><g clip-rule="nonzero" clip-path="url(#7cab6827ad)"><path style=" stroke:none;fill-rule:nonzero;fill:#004aad;fill-opacity:1;" d="M 112.511719 48.960938 L 28.441406 3.109375 C 24.65625 1.03125 20.894531 -0.0234375 17.292969 -0.0234375 C 7.210938 -0.0234375 0.429688 7.914062 0.429688 19.726562 L 0.429688 109.546875 C 0.429688 121.355469 7.210938 129.292969 17.292969 129.292969 C 20.894531 129.292969 24.65625 128.238281 28.441406 126.171875 L 112.523438 80.308594 C 119.542969 76.46875 123.582031 70.753906 123.582031 64.636719 C 123.582031 58.515625 119.542969 52.789062 112.511719 48.960938 Z M 107.144531 70.472656 L 23.0625 116.328125 C 20.976562 117.472656 18.976562 118.066406 17.292969 118.066406 C 12.195312 118.066406 11.65625 112.117188 11.65625 109.546875 L 11.65625 19.726562 C 11.65625 17.152344 12.207031 11.203125 17.292969 11.203125 C 18.976562 11.203125 20.976562 11.808594 23.0625 12.945312 L 107.136719 58.796875 C 110.402344 60.582031 112.34375 62.769531 112.34375 64.636719 C 112.34375 66.5 110.402344 68.675781 107.144531 70.472656 Z M 107.144531 70.472656 "/></g><g clip-rule="nonzero" clip-path="url(#8707799636)"><path style=" stroke:none;fill-rule:nonzero;fill:#004aad;fill-opacity:1;" d="M 160.335938 51.003906 L 87.207031 11.121094 C 83.914062 9.3125 80.644531 8.394531 77.507812 8.394531 C 68.738281 8.394531 62.839844 15.300781 62.839844 25.574219 L 62.839844 103.703125 C 62.839844 113.976562 68.738281 120.878906 77.507812 120.878906 C 80.644531 120.878906 83.914062 119.960938 87.207031 118.164062 L 160.34375 78.273438 C 166.449219 74.929688 169.964844 69.960938 169.964844 64.636719 C 169.964844 59.316406 166.449219 54.335938 160.335938 51.003906 Z M 155.667969 69.714844 L 82.527344 109.601562 C 80.710938 110.597656 78.972656 111.113281 77.507812 111.113281 C 73.074219 111.113281 72.605469 105.9375 72.605469 103.703125 L 72.605469 25.574219 C 72.605469 23.335938 73.085938 18.160156 77.507812 18.160156 C 78.972656 18.160156 80.710938 18.6875 82.527344 19.675781 L 155.65625 59.558594 C 158.5 61.113281 160.1875 63.015625 160.1875 64.636719 C 160.1875 66.257812 158.5 68.152344 155.667969 69.714844 Z M 155.667969 69.714844 "/></g><g clip-rule="nonzero" clip-path="url(#e883627de8)"><path style=" stroke:none;fill-rule:nonzero;fill:#004aad;fill-opacity:1;" d="M 160.335938 51.003906 L 87.207031 11.121094 C 83.914062 9.3125 80.644531 8.394531 77.507812 8.394531 C 68.738281 8.394531 62.839844 15.300781 62.839844 25.574219 L 62.839844 103.703125 C 62.839844 113.976562 68.738281 120.878906 77.507812 120.878906 C 80.644531 120.878906 83.914062 119.960938 87.207031 118.164062 L 160.34375 78.273438 C 166.449219 74.929688 169.964844 69.960938 169.964844 64.636719 C 169.964844 59.316406 166.449219 54.335938 160.335938 51.003906 Z M 155.667969 69.714844 L 82.527344 109.601562 C 80.710938 110.597656 78.972656 111.113281 77.507812 111.113281 C 73.074219 111.113281 72.605469 105.9375 72.605469 103.703125 L 72.605469 25.574219 C 72.605469 23.335938 73.085938 18.160156 77.507812 18.160156 C 78.972656 18.160156 80.710938 18.6875 82.527344 19.675781 L 155.65625 59.558594 C 158.5 61.113281 160.1875 63.015625 160.1875 64.636719 C 160.1875 66.257812 158.5 68.152344 155.667969 69.714844 Z M 155.667969 69.714844 "/></g></g></svg>